<svg width="49" height="50" viewBox="0 0 49 50" fill="none" xmlns="http://www.w3.org/2000/svg">
<path d="M5.80005 11.3002C8.72716 11.3002 11.1 8.92731 11.1 6.0002C11.1 3.07309 8.72716 0.700195 5.80005 0.700195C2.87294 0.700195 0.5 3.07309 0.5 6.0002C0.5 8.92731 2.87294 11.3002 5.80005 11.3002Z" fill="white"/>
<path d="M24.5 11.3002C27.4271 11.3002 29.8 8.92731 29.8 6.0002C29.8 3.07309 27.4271 0.700195 24.5 0.700195C21.5729 0.700195 19.2 3.07309 19.2 6.0002C19.2 8.92731 21.5729 11.3002 24.5 11.3002Z" fill="white"/>
<path d="M43.2 11.3002C46.1271 11.3002 48.5 8.92731 48.5 6.0002C48.5 3.07309 46.1271 0.700195 43.2 0.700195C40.2728 0.700195 37.9 3.07309 37.9 6.0002C37.9 8.92731 40.2728 11.3002 43.2 11.3002Z" fill="white"/>
<path d="M5.80005 30.4003C8.72716 30.4003 11.1 28.0274 11.1 25.1003C11.1 22.1732 8.72716 19.8003 5.80005 19.8003C2.87294 19.8003 0.5 22.1732 0.5 25.1003C0.5 28.0274 2.87294 30.4003 5.80005 30.4003Z" fill="white"/>
<path d="M24.5 30.4003C27.4271 30.4003 29.8 28.0274 29.8 25.1003C29.8 22.1732 27.4271 19.8003 24.5 19.8003C21.5729 19.8003 19.2 22.1732 19.2 25.1003C19.2 28.0274 21.5729 30.4003 24.5 30.4003Z" fill="white"/>
<path d="M43.2 30.4003C46.1271 30.4003 48.5 28.0274 48.5 25.1003C48.5 22.1732 46.1271 19.8003 43.2 19.8003C40.2728 19.8003 37.9 22.1732 37.9 25.1003C37.9 28.0274 40.2728 30.4003 43.2 30.4003Z" fill="white"/>
<path d="M5.80005 49.8002C8.72716 49.8002 11.1 47.4273 11.1 44.5002C11.1 41.5731 8.72716 39.2002 5.80005 39.2002C2.87294 39.2002 0.5 41.5731 0.5 44.5002C0.5 47.4273 2.87294 49.8002 5.80005 49.8002Z" fill="white"/>
<path d="M24.5 49.8002C27.4271 49.8002 29.8 47.4273 29.8 44.5002C29.8 41.5731 27.4271 39.2002 24.5 39.2002C21.5729 39.2002 19.2 41.5731 19.2 44.5002C19.2 47.4273 21.5729 49.8002 24.5 49.8002Z" fill="white"/>
<path d="M43.2 49.8002C46.1271 49.8002 48.5 47.4273 48.5 44.5002C48.5 41.5731 46.1271 39.2002 43.2 39.2002C40.2728 39.2002 37.9 41.5731 37.9 44.5002C37.9 47.4273 40.2728 49.8002 43.2 49.8002Z" fill="white"/>
</svg>
