<svg width="16" height="20" viewBox="0 0 16 20" fill="none" xmlns="http://www.w3.org/2000/svg">
<path d="M9.40026 14.8C10.3003 13.9 11.3002 12.9 12.2002 12C12.4002 11.8 12.6002 11.6 12.8002 11.4C13.4002 10.8 14.2002 10.8 14.8002 11.3C15.3002 11.8 15.3002 12.6 14.7002 13.2C13.1002 14.8 11.6002 16.3 10.0002 17.9C9.70024 18.2 9.40024 18.5 9.00024 18.8C8.20024 19.5 7.40025 19.5 6.70025 18.8C4.80025 16.9 2.90021 15.1 1.10021 13.2C0.400212 12.5 0.500248 11.6 1.20025 11.1C1.80025 10.7 2.40024 10.8 3.00024 11.3C4.00024 12.3 5.10021 13.4 6.10021 14.4C6.20021 14.5 6.30021 14.6 6.60021 14.8C6.60021 14.5 6.60021 14.2 6.60021 14C6.60021 10.2 6.60021 6.3 6.60021 2.5C6.60021 2.2 6.60025 2.00001 6.70025 1.70001C6.80025 1.00001 7.40024 0.599976 8.00024 0.599976C8.60024 0.599976 9.10022 0.999976 9.30022 1.59998C9.40022 1.89998 9.40026 2.10002 9.40026 2.40002C9.40026 6.20002 9.40026 10 9.40026 13.7C9.40026 13.9 9.40026 14.2 9.40026 14.4C9.30026 14.7 9.40026 14.8 9.40026 14.8Z" fill="black"/>
</svg>
