<svg width="126" height="107" viewBox="0 0 126 107" fill="none" xmlns="http://www.w3.org/2000/svg">
<path d="M63.4998 106.8C56.2998 106.8 49.0998 105.5 42.0998 103C29.0998 98.2998 18.2999 89.6998 10.7999 78.1998C4.09987 67.7998 0.599866 55.7998 0.799866 44.1998V43.3998H27.5998L27.8998 43.6998C28.0998 43.9998 28.2998 44.1998 28.4998 44.4998C28.8998 44.9998 29.3999 45.5998 29.7999 46.0998C31.2999 47.6998 31.9999 49.6998 32.2999 52.3998C32.5999 55.3998 32.7999 58.5998 33.2999 61.5998C33.6999 63.8998 34.8998 65.6998 36.5998 66.5998C42.5998 69.9998 44.3998 75.6998 45.3998 80.3998C45.4998 80.9998 45.5999 81.5998 45.7999 82.1998C46.4999 85.6998 47.1998 89.3998 48.6998 92.6998C49.2998 93.9998 49.8998 95.0998 50.5998 95.8998C51.5998 97.1998 52.7998 97.7998 54.0998 97.8998C55.3998 97.8998 56.5998 97.2998 57.6998 95.9998C59.8998 93.3998 60.7999 90.0998 61.2999 87.4998C61.3999 87.0998 61.4998 86.5998 61.4998 86.0998C61.9998 83.3998 62.3998 80.5998 64.1998 78.1998C65.6998 76.0998 67.1998 74.2998 68.4998 72.6998C72.0998 68.3998 74.0999 64.3998 74.7999 60.0998C75.1999 57.2998 74.4998 55.0998 72.5998 53.1998C70.6998 51.1998 68.1998 49.5998 64.8998 48.0998C63.2998 47.3998 61.6998 46.6998 59.8998 45.9998C59.0998 45.6998 58.2998 45.2998 57.3998 44.9998L53.3998 43.2998H79.1998L79.3998 43.7998C81.2998 48.5998 85.0998 50.9998 91.0998 51.2998C91.7998 51.2998 92.5999 51.3998 93.2999 51.3998C93.9999 51.3998 94.7998 51.4998 95.4998 51.4998C98.5998 51.6998 100.4 53.0998 101 55.8998C101.5 57.8998 101.6 59.9998 101.8 61.9998V62.0998C102 64.2998 102.1 66.6998 102 69.0998C101.9 71.4998 101.7 74.5998 101.1 77.7998C100.8 79.4998 101 80.9998 101.8 81.9998C102.5 82.8998 103.7 83.4998 105.2 83.6998C106.3 83.7998 107.4 83.7998 108.5 83.7998C109 83.7998 109.5 83.7998 109.9 83.7998H111.7L110.6 85.1998C103.4 93.9998 92.9998 100.8 81.1998 104.3C75.3998 105.9 69.4998 106.8 63.4998 106.8ZM2.59979 44.9998C2.49979 65.2998 14.8998 91.2998 42.6998 101.4C69.5998 111.2 94.9998 100.2 108 85.4998C107 85.4998 106.1 85.4998 105 85.3998C102.9 85.1998 101.3 84.3998 100.4 83.0998C99.3998 81.6998 98.9998 79.7998 99.3998 77.5998C99.7998 75.1998 100.1 72.5998 100.3 69.1998C100.4 66.8998 100.2 64.4998 100.1 62.3998V62.2998C99.9998 60.2998 99.7998 58.2998 99.3998 56.3998C98.8998 54.3998 97.6998 53.3998 95.3998 53.2998C94.6998 53.2998 93.9998 53.1998 93.1998 53.1998C92.4998 53.1998 91.6998 53.0998 90.9998 53.0998C84.4998 52.6998 80.2998 50.0998 77.9998 44.9998H61.9998C63.1998 45.4998 64.3998 45.9998 65.4998 46.4998C69.0998 48.0998 71.6998 49.8998 73.6998 51.9998C75.9998 54.2998 76.7999 57.0998 76.2999 60.3998C75.5999 65.0998 73.4998 69.3998 69.5998 73.8998C68.2998 75.4998 66.8998 77.2998 65.3998 79.2998C63.8998 81.3998 63.4998 83.7998 62.9998 86.3998C62.8998 86.8998 62.7999 87.2998 62.7999 87.7998C62.2999 90.5998 61.3998 94.1998 58.8998 97.0998C57.4998 98.6998 55.7998 99.5998 53.9998 99.5998C52.1998 99.5998 50.4998 98.5998 49.1998 96.9998C48.3998 95.9998 47.6998 94.8998 47.0998 93.3998C45.4998 89.8998 44.7998 86.1998 43.9998 82.4998C43.8998 81.8998 43.7998 81.2998 43.5998 80.6998C42.6998 76.0998 40.9998 70.9998 35.6998 67.9998C33.4998 66.7998 31.9998 64.4998 31.4998 61.6998C30.9998 58.5998 30.6998 55.3998 30.4998 52.2998C30.2998 49.9998 29.6998 48.3998 28.4998 47.0998C27.9998 46.5998 27.5998 45.9998 27.0998 45.4998C26.9998 45.3998 26.8998 45.1998 26.6998 45.0998H2.59979V44.9998Z" fill="#111111"/>
<path d="M54.3 95.3999C53.2 95.3999 52.4 94.2999 51.8 93.3999C50.2 90.7999 49.5 87.8999 48.9 85.0999C48.8 84.7999 48.8 84.4999 48.7 84.1999C48.5 83.4999 48.4 82.7999 48.2 82.0999C47.6 79.3999 46.9 76.4999 46.1 73.7999C45 70.2999 43 67.7999 40.2 66.0999C37.1 64.2999 35.5 61.4999 35.1 57.4999C35 56.0999 34.9 54.7999 34.9 53.4999C34.9 50.7999 34.5 47.5999 32.2 44.7999L31 43.3999H38L38.2 43.8999C39 45.7999 40.6 46.5999 43.2 46.3999C44.5 46.2999 45.5 46.1999 46.4 45.9999C48.7 45.5999 51.1 45.6999 53.5 46.3999C57.7 47.5999 63.2 49.3999 68.2 52.5999C72.6 55.2999 73.3 57.3999 71.9 62.3999C71.2 64.8999 69.9 67.2999 68 69.6999C67 70.9999 65.8 72.3999 64.5 73.9999C61.6 77.3999 59.8 81.2999 59.2 85.8999C58.9 88.0999 58.1 90.4999 56.8 93.2999C56.3 94.0999 55.6 95.2999 54.3 95.3999C54.4 95.3999 54.4 95.3999 54.3 95.3999ZM34.5 44.9999C36.3 47.7999 36.6 50.7999 36.6 53.2999C36.6 54.5999 36.7 55.7999 36.8 57.1999C37.1 60.6999 38.4 62.9999 41 64.4999C44.2 66.3999 46.5 69.3999 47.7 73.1999C48.6 75.9999 49.2 78.7999 49.9 81.5999C50.1 82.2999 50.2 82.9999 50.4 83.6999C50.5 83.9999 50.5 84.2999 50.6 84.5999C51.3 87.3999 51.9 89.9999 53.3 92.3999C54 93.4999 54.3 93.5999 54.3 93.5999C54.3 93.5999 54.6 93.4999 55.1 92.3999C56.3 89.7999 57.1 87.4999 57.3 85.4999C58 80.5999 59.9 76.3999 63 72.6999C64.3 71.0999 65.5 69.7999 66.5 68.4999C68.3 66.2999 69.4 64.0999 70.1 61.7999C71.3 57.4999 70.9 56.2999 67.2 53.9999C62.4 50.9999 57 49.1999 52.9 47.9999C50.7 47.3999 48.7 47.1999 46.6 47.5999C45.6 47.7999 44.5 47.8999 43.2 47.9999C40 48.2999 37.9 47.2999 36.7 44.9999H34.5Z" fill="#111111"/>
<path d="M106.8 81.4998C106.3 81.4998 105.7 81.3998 105.2 81.2998C104.7 81.1998 104 80.9998 103.7 80.3998C103.4 79.8998 103.4 79.3998 103.5 78.5998C104.5 74.8998 104.7 71.0998 104.4 66.8998C104.2 64.5998 104.1 62.2998 104 60.0998C104 58.8998 103.9 57.5998 103.8 56.3998C103.8 55.8998 103.6 55.3998 103.5 54.8998V54.7998C102.5 50.8998 100.5 49.3998 96.1998 49.1998C95.4998 49.1998 94.7999 49.0998 94.0999 49.0998C92.6999 49.0998 91.2999 48.9998 89.7999 48.8998C86.7999 48.5998 84.3999 47.2998 82.5999 44.6998L81.5999 43.2998H126V44.1998C125.9 56.6998 122.5 67.9998 115.7 78.5998L115.3 79.2998L114.6 78.8998C113.9 78.4998 113.4 78.7998 112.3 79.4998C112.2 79.5998 112.1 79.6998 111.9 79.6998C110.4 80.8998 108.6 81.4998 106.8 81.4998ZM105.1 79.4998C105.1 79.4998 105.2 79.5998 105.5 79.5998C107.4 79.9998 109.2 79.4998 111 78.1998C111.1 78.0998 111.2 77.9998 111.3 77.9998C112.2 77.3998 113.3 76.5998 114.6 76.9998C120.9 67.0998 124 56.5998 124.2 44.9998H85.0999C86.3999 46.2998 87.9999 46.9998 89.8999 47.0998C91.2999 47.1998 92.6999 47.2998 94.0999 47.2998C94.7999 47.2998 95.4998 47.2998 96.1998 47.3998C101.2 47.5998 103.9 49.6998 105.1 54.2998V54.3998C105.2 54.9998 105.4 55.5998 105.4 56.2998C105.5 57.5998 105.5 58.7998 105.6 59.9998C105.7 62.1998 105.8 64.4998 106 66.6998C106.4 71.0998 106.1 75.0998 105.1 78.9998C105.1 79.3998 105.1 79.4998 105.1 79.4998Z" fill="#111111"/>
<path d="M70.4997 37.8999C69.2997 37.8999 68.0997 37.8999 66.9997 37.8999C65.7997 37.8999 64.5997 37.8999 63.3997 37.8999H59.9997C57.1997 37.8999 54.3997 37.8999 51.5997 37.8999C49.5997 37.8999 48.5997 37.0999 48.1997 36.3999C47.6997 35.6999 47.2997 34.4999 48.0997 32.5999C50.4997 26.2999 56.7997 22.0999 63.5997 22.0999C70.3997 22.0999 76.5997 26.3999 78.9997 32.6999C79.4997 34.0999 79.4998 35.3999 78.7998 36.3999C78.1998 37.2999 76.9997 37.8999 75.4997 37.8999C73.8997 37.8999 72.1997 37.8999 70.4997 37.8999ZM63.4997 36.1999C64.6997 36.1999 65.7997 36.1999 66.9997 36.1999C69.7997 36.1999 72.5997 36.1999 75.4997 36.1999C76.3997 36.1999 77.0997 35.8999 77.3997 35.4999C77.6997 34.9999 77.6997 34.2999 77.3997 33.3999C75.2997 27.6999 69.6997 23.8999 63.5997 23.8999C57.4997 23.8999 51.8997 27.6999 49.6997 33.2999C49.2997 34.1999 49.2997 34.9999 49.5997 35.4999C49.8997 35.9999 50.5997 36.1999 51.5997 36.1999C54.3997 36.1999 57.1997 36.1999 59.9997 36.1999H63.3997H63.4997Z" fill="#111111"/>
<path d="M35.0999 33.8998C32.4999 33.8998 29.9999 33.8998 27.3999 33.8998C26.3999 33.8998 25.4999 33.4998 24.8999 32.6998C24.3999 31.9998 24.2999 31.1998 24.4999 30.2998C26.1999 24.7998 29.8999 21.0998 35.3999 19.7998C40.7999 18.4998 45.6999 19.7998 49.7999 23.6998L50.2999 24.1998L44.4999 33.9998H43.9999C42.5999 33.9998 41.0998 33.9998 39.6998 33.9998C38.0998 33.8998 36.5999 33.8998 35.0999 33.8998ZM39.3999 20.9998C38.1999 20.9998 36.9999 21.1998 35.7999 21.4998C30.8999 22.6998 27.5999 25.8998 26.0999 30.8998C25.9999 31.2998 26.0998 31.5998 26.1998 31.7998C26.3998 32.0998 26.7999 32.2998 27.2999 32.2998C31.3999 32.2998 35.5999 32.2998 39.5999 32.2998C40.8999 32.2998 42.1999 32.2998 43.3999 32.2998L47.9999 24.4998C45.4999 22.0998 42.5999 20.9998 39.3999 20.9998Z" fill="#111111"/>
<path d="M92.0997 33.8998C90.4997 33.8998 88.9998 33.8998 87.3998 33.8998H82.4998L76.6997 24.1998L77.0997 23.6998C78.3997 22.0998 80.4997 20.7998 83.1997 19.9998C90.8997 17.4998 99.4997 21.6998 102.2 29.3998C102.8 31.0998 102.5 32.0998 102.1 32.6998C101.7 33.2998 100.9 33.8998 99.0997 33.8998C96.7997 33.8998 94.3997 33.8998 92.0997 33.8998ZM83.4998 32.1998H87.3998C91.1998 32.1998 95.0997 32.1998 99.0997 32.1998C99.8997 32.1998 100.4 31.9998 100.7 31.6998C100.9 31.3998 100.9 30.7998 100.6 29.9998C98.1997 23.1998 90.5997 19.3998 83.6997 21.6998C81.5997 22.3998 79.8998 23.2998 78.7998 24.4998L83.4998 32.1998Z" fill="#111111"/>
<path d="M116.1 29.7998C112.6 29.7998 109.4 29.7998 106.3 29.7998C105.6 29.7998 104.9 29.2998 104.5 28.6998C103.7 27.1998 102.9 25.6998 102.1 24.0998C101.8 23.5998 101.5 22.9998 101.2 22.4998L101 21.9998L101.4 21.5998C104.9 17.4998 109.5 15.7998 114.6 16.6998C120 17.6998 123.8 21.0998 125.5 26.4998C125.9 27.6998 125.6 28.4998 125.3 28.8998C125 29.2998 124.3 29.8998 123 29.8998C120.6 29.7998 118.3 29.7998 116.1 29.7998ZM103.1 22.1998C103.3 22.5998 103.5 22.9998 103.7 23.2998C104.5 24.8998 105.3 26.3998 106.1 27.7998C106.1 27.8998 106.3 27.9998 106.4 27.9998C111.3 27.9998 116.6 27.9998 123.1 27.9998C123.5 27.9998 123.9 27.8998 124 27.7998C124.1 27.6998 124.1 27.2998 124 26.8998C122.5 22.0998 119.2 19.1998 114.4 18.2998C109.9 17.5998 106.2 18.8998 103.1 22.1998Z" fill="#111111"/>
<path d="M10.8 29.7999C8.49998 29.7999 6.19989 29.7999 3.69989 29.7999C2.49989 29.7999 1.79993 29.2999 1.49993 28.8999C1.19993 28.4999 0.899983 27.6999 1.29998 26.4999C2.99998 20.9999 6.69989 17.6999 12.1999 16.6999C17.3999 15.6999 21.9999 17.3999 25.4999 21.4999L25.9 21.8999L25.5999 22.3999C25.2999 22.9999 24.9999 23.4999 24.6999 24.0999C23.8999 25.6999 23.1 27.1999 22.3 28.6999C22 29.2999 21.1999 29.7999 20.4999 29.7999C17.4999 29.7999 14.3 29.7999 10.8 29.7999ZM14.9999 18.1999C14.1999 18.1999 13.2999 18.2999 12.4999 18.3999C7.69993 19.2999 4.49993 22.1999 2.99993 26.9999C2.89993 27.3999 2.89993 27.6999 2.99993 27.7999C3.09993 27.9999 3.39998 27.9999 3.79998 27.9999C9.99998 27.9999 15.4999 27.9999 20.5999 27.9999C20.6999 27.9999 20.8 27.8999 20.9 27.7999C21.7 26.2999 22.5 24.8999 23.3 23.2999C23.5 22.8999 23.7 22.4999 23.9 22.1999C21.3 19.4999 18.3999 18.1999 14.9999 18.1999Z" fill="#111111"/>
<path d="M63.4998 21.3C58.5998 21.3 54.6997 17.3 54.6997 12.5C54.6997 7.69995 58.5998 3.69995 63.3998 3.69995C63.3998 3.69995 63.3998 3.69995 63.4998 3.69995C65.8998 3.69995 68.0998 4.59995 69.7998 6.29995C71.4998 7.99995 72.3998 10.2 72.3998 12.5C72.3998 14.9 71.4998 17.1 69.7998 18.8C67.9998 20.3 65.7998 21.3 63.4998 21.3ZM63.3998 5.29995C59.4998 5.29995 56.2998 8.49995 56.2998 12.4C56.2998 16.3 59.4998 19.5 63.3998 19.5C65.2998 19.5 67.0998 18.8 68.3998 17.4C69.7998 16 70.4998 14.2 70.4998 12.3C70.4998 10.4 69.6998 8.59995 68.3998 7.29995C67.0998 6.09995 65.2998 5.29995 63.3998 5.29995Z" fill="#111111"/>
<path d="M39.0999 18.3999C34.5999 18.3999 30.8999 14.6999 30.8999 10.1999C30.8999 5.69985 34.5999 2.09985 38.9999 2.09985C43.4999 2.09985 47.0998 5.69985 47.1998 10.1999C47.1998 12.3999 46.3999 14.3999 44.7999 15.9999C43.2999 17.5999 41.1999 18.3999 39.0999 18.3999ZM39.0999 3.79985C35.5999 3.79985 32.6998 6.69985 32.6998 10.1999C32.6998 13.6999 35.5999 16.5999 39.0999 16.6999C39.0999 16.6999 39.0998 16.6999 39.1998 16.6999C40.8998 16.6999 42.4998 15.9999 43.6998 14.7999C44.8998 13.5999 45.5999 11.8999 45.5999 10.1999C45.4999 6.69985 42.5999 3.79985 39.0999 3.79985Z" fill="#111111"/>
<path d="M87.7999 18.3999C83.2999 18.3999 79.6999 14.7999 79.5999 10.2999C79.5999 8.09986 80.3999 6.09985 81.9999 4.49986C83.5999 2.89986 85.5999 2.09985 87.7999 2.09985C92.2999 2.09985 95.8999 5.79986 95.8999 10.2999C95.9999 14.6999 92.2999 18.3999 87.7999 18.3999ZM87.7999 3.79985C86.0999 3.79985 84.4998 4.49985 83.1998 5.69985C81.9998 6.89985 81.2999 8.59986 81.2999 10.2999C81.2999 13.7999 84.2998 16.6999 87.6998 16.6999C91.1998 16.6999 94.0999 13.7999 94.0999 10.1999C94.2999 6.69985 91.3999 3.79985 87.7999 3.79985C87.8999 3.79985 87.8999 3.79985 87.7999 3.79985Z" fill="#111111"/>
<path d="M14.6997 15.5999C10.5997 15.5999 7.19971 12.1999 7.19971 8.09985C7.19971 6.09985 7.99978 4.19985 9.39978 2.79985C10.7998 1.39985 12.6997 0.599854 14.6997 0.599854C18.7997 0.599854 22.1997 3.99985 22.1997 8.09985C22.1997 10.0999 21.3998 11.9999 19.9998 13.3999C18.5998 14.7999 16.6997 15.5999 14.6997 15.5999ZM8.99976 8.09985C8.99976 11.2999 11.5998 13.8999 14.7998 13.8999C16.2998 13.8999 17.6998 13.2999 18.7998 12.1999C19.8998 11.0999 20.4998 9.59985 20.4998 8.09985C20.4998 4.89985 17.8998 2.29985 14.7998 2.29985C13.2998 2.29985 11.7997 2.89986 10.6997 3.99986C9.59971 5.09985 8.99976 6.49985 8.99976 8.09985Z" fill="#111111"/>
<path d="M112.2 15.5999C110.2 15.5999 108.4 14.7999 107 13.3999C105.6 11.9999 104.8 10.0999 104.8 8.09985C104.8 3.99985 108.1 0.599854 112.3 0.599854C114.3 0.599854 116.1 1.39985 117.6 2.79985C119 4.19985 119.8 6.09985 119.8 8.09985C119.7 12.1999 116.3 15.5999 112.2 15.5999ZM112.2 2.29985C109 2.29985 106.4 4.89985 106.5 8.09985C106.5 9.69985 107.1 11.0999 108.2 12.1999C109.3 13.2999 110.7 13.8999 112.2 13.8999C115.4 13.8999 118 11.2999 117.9 8.09985C117.9 6.59985 117.3 5.09985 116.2 3.99986C115.2 2.89986 113.7 2.29985 112.2 2.29985Z" fill="#111111"/>
</svg>
