<svg width="125" height="126" viewBox="0 0 125 126" fill="none" xmlns="http://www.w3.org/2000/svg">
<path d="M27.8998 125C27.5998 124.9 27.1998 124.7 26.8998 124.6C24.2998 123.6 22.5998 121.3 22.4998 118.5C22.4998 117 22.4998 115.5 22.4998 114C22.4998 113.4 22.2998 113 21.6998 112.8C17.7998 111.2 15.6998 108.1 15.6998 103.9C15.6998 86.9 15.6998 70 15.6998 53C15.6998 52.7 15.6998 52.4 15.6998 52.1C15.8998 51.1 16.4998 50.5 17.4998 50.5C18.4998 50.5 19.0998 51.1 19.2998 52.1C19.3998 52.5 19.2998 52.9 19.2998 53.3C19.2998 64.1 19.2998 74.9 19.2998 85.7C19.2998 86.2 19.2998 86.7 19.2998 87.3C19.7998 87.3 20.2998 87.3 20.6998 87.3C24.1998 87.3 27.7998 87.3 31.2998 87.3C33.1998 87.3 34.3998 88.1 35.1998 89.9C36.2998 92.6 37.4998 95.3 38.5998 97.9C39.5998 100.2 38.5998 101.6 36.0998 101.6C30.9998 101.6 25.8998 101.6 20.7998 101.6C20.3998 101.6 19.8998 101.6 19.2998 101.6C19.3998 103 19.3998 104.4 19.6998 105.7C20.1998 108 22.2998 109.5 24.6998 109.7C25.0998 109.7 25.5998 109.7 25.9998 109.7C50.3998 109.7 74.7998 109.6 99.1998 109.8C103.7 109.8 106.8 107.2 105.9 101.7C105.5 101.7 105.1 101.7 104.6 101.7C99.3998 101.7 94.2998 101.7 89.0998 101.7C86.6998 101.7 85.6998 100.2 86.6998 98C87.7998 95.4 88.9998 92.8 89.9998 90.2C90.7998 88.3 92.0998 87.4 94.1998 87.4C97.5998 87.5 101.1 87.4 104.5 87.4C104.9 87.4 105.4 87.4 105.9 87.4C105.9 86.8 105.9 86.4 105.9 86C105.9 64.2 105.9 42.4 105.9 20.7C105.9 16.6 103.8 14.4 99.5998 14.4C74.8998 14.4 50.1998 14.4 25.4998 14.4C21.3998 14.4 19.2998 16.5 19.2998 20.6C19.2998 28 19.2998 35.4 19.2998 42.9C19.2998 43.2 19.2998 43.6 19.2998 43.9C19.1998 45 18.4998 45.8 17.4998 45.8C16.4998 45.8 15.6998 45 15.6998 43.9C15.6998 41.7 15.6998 39.5 15.6998 37.3C15.6998 34.6 15.6998 31.9 15.6998 29.1C14.1998 29.1 12.7998 29.1 11.2998 29.1C11.2998 29.6 11.2998 30 11.2998 30.4C11.2998 37.1 11.2998 43.9 11.2998 50.6C11.2998 53.4 9.99979 54.8 7.09979 54.8C5.99979 54.8 4.8998 54.8 3.7998 54.8C1.7998 54.7 0.299805 53.3 0.299805 51.3C0.299805 43.8 0.299805 36.4 0.299805 28.9C0.299805 26.8 1.79982 25.4 3.99982 25.3C7.39982 25.3 10.7998 25.3 14.1998 25.3C14.5998 25.3 15.0998 25.3 15.5998 25.3C15.5998 24.3 15.6998 23.5 15.5998 22.7C14.8998 14.7 19.2998 10 27.5998 10.7C28.6998 10.8 29.7998 10.7 30.9998 10.7C30.9998 9.6 30.9998 8.6 30.9998 7.6C31.0998 3.2 33.7998 0.5 38.1998 0.5C54.3998 0.5 70.5998 0.5 86.8998 0.5C91.1998 0.5 93.9998 3.2 94.0998 7.5C94.0998 8.5 94.0998 9.5 94.0998 10.7C96.2998 10.7 98.3998 10.7 100.5 10.7C105 10.8 108.6 13.8 109.4 18.2C109.7 19.7 109.6 21.2 109.6 22.7C109.6 23.5 109.6 24.3 109.6 25.3C110 25.3 110.4 25.3 110.8 25.3C114 25.3 117.2 25.4 120.4 25.3C122.6 25.2 124.1 26 124.9 28C124.9 36 124.9 44.1 124.9 52.1C124.1 54.1 122.6 55 120.4 54.8C119.7 54.7 118.9 54.8 118.2 54.8C115.3 54.8 114 53.5 114 50.6C114 43.9 114 37.1 114 30.4C114 30 114 29.5 114 29.1C112.5 29.1 111.1 29.1 109.6 29.1C109.6 29.7 109.6 30.2 109.6 30.6C109.6 55 109.6 79.4 109.6 103.8C109.6 108.1 107.5 111.2 103.6 112.8C102.9 113.1 102.8 113.4 102.8 114C102.8 115.5 102.9 117.1 102.8 118.6C102.6 121.5 101.2 123.4 98.4998 124.6C98.0998 124.8 97.7998 124.9 97.3998 125.1C92.4998 125.1 87.4998 125.1 82.5998 125.1C78.4998 123.8 76.8998 120.9 77.1998 116.7C77.2998 115.6 77.1998 114.5 77.1998 113.5C67.3998 113.5 57.7998 113.5 48.0998 113.5C48.0998 115.3 48.0998 117 48.0998 118.7C47.9998 121 46.9998 122.7 45.0998 124C44.3998 124.5 43.4998 124.8 42.6998 125.1C37.6998 125 32.7998 125 27.8998 125ZM90.4998 10.6C90.4998 9.6 90.4998 8.8 90.4998 7.9C90.4998 5.1 89.3998 4 86.5998 4C70.5998 4 54.6998 4 38.6998 4C38.2998 4 37.8998 4 37.4998 4C36.1998 4.2 35.0998 5.1 34.8998 6.4C34.7998 7.8 34.8998 9.1 34.8998 10.5C53.3998 10.6 71.8998 10.6 90.4998 10.6ZM26.0998 113.4C26.0998 115.2 26.0998 116.8 26.0998 118.4C26.1998 120.1 27.2998 121.3 28.9998 121.3C33.0998 121.3 37.2998 121.3 41.3998 121.3C42.8998 121.3 44.1999 120.2 44.2999 118.8C44.3999 117 44.2999 115.2 44.2999 113.3C38.2999 113.4 32.2998 113.4 26.0998 113.4ZM99.1998 113.4C92.9998 113.4 86.9998 113.4 80.8998 113.4C80.8998 115.2 80.7998 117 80.8998 118.7C80.9998 120.2 82.1999 121.3 83.7999 121.3C87.9999 121.3 92.1999 121.3 96.2999 121.3C97.7999 121.3 99.0998 120.1 99.1998 118.7C99.1998 116.9 99.1998 115.2 99.1998 113.4ZM19.3998 91C19.3998 93.4 19.3998 95.7 19.3998 98C24.4998 98 29.4998 98 34.6998 98C33.6998 95.8 32.7998 93.6 31.8998 91.5C31.7998 91.3 31.3998 91.1 31.1998 91.1C27.1998 90.9 23.3998 91 19.3998 91ZM90.5998 97.9C95.7998 97.9 100.8 97.9 105.8 97.9C105.8 95.6 105.8 93.3 105.8 91C101.8 91 97.9998 91 94.0998 91C93.7998 91 93.4998 91.2 93.3998 91.4C92.4998 93.5 91.5998 95.7 90.5998 97.9ZM7.59979 50.9C7.59979 43.5 7.59979 36.2 7.59979 28.9C6.39979 28.9 5.19979 28.9 4.09979 28.9C4.09979 36.3 4.09979 43.6 4.09979 50.9C5.19979 50.9 6.39979 50.9 7.59979 50.9ZM117.7 28.9C117.7 36.3 117.7 43.6 117.7 50.9C118.9 50.9 120 50.9 121.2 50.9C121.2 43.5 121.2 36.2 121.2 28.9C120 28.9 118.9 28.9 117.7 28.9Z" fill="#111111"/>
<path d="M62.5999 74.1001C50.9999 74.1001 39.3999 74.1001 27.7999 74.1001C24.5999 74.1001 22.8999 72.4001 22.8999 69.2001C22.8999 56.1001 22.8999 43.1001 22.8999 30.0001C22.8999 26.8001 24.5999 25.1001 27.7999 25.1001C50.9999 25.1001 74.1999 25.1001 97.3999 25.1001C100.6 25.1001 102.3 26.8001 102.3 30.0001C102.3 43.1001 102.3 56.1001 102.3 69.2001C102.3 72.4001 100.6 74.1001 97.3999 74.1001C85.7999 74.1001 74.1999 74.1001 62.5999 74.1001ZM62.7999 28.9001C51.2999 28.9001 39.7999 28.9001 28.2999 28.9001C27.0999 28.9001 26.6999 29.2001 26.6999 30.4001C26.6999 43.3001 26.6999 56.1001 26.6999 69.0001C26.6999 70.1001 26.9999 70.5001 28.1999 70.5001C51.1999 70.5001 74.2999 70.5001 97.2999 70.5001C98.4999 70.5001 98.7999 70.1001 98.7999 69.0001C98.7999 56.1001 98.7999 43.3001 98.7999 30.4001C98.7999 29.1001 98.3998 28.8001 97.1998 28.8001C85.5998 28.9001 74.1999 28.9001 62.7999 28.9001Z" fill="#111111"/>
<path d="M81.1997 85.1C78.9997 85.1 76.7997 85.1 74.6997 85.1C73.2997 85.1 72.3998 84.4 72.3998 83.3C72.3998 82.2 73.1997 81.5 74.6997 81.5C77.0997 81.5 79.3998 81.5 81.7998 81.5C84.4998 81.5 85.9998 83.8 84.8998 86.3C82.9998 90.7 80.9998 95.1 79.0998 99.5C78.4998 101 77.2998 101.7 75.7998 101.7C67.0998 101.7 58.3998 101.7 49.7998 101.7C48.1998 101.7 47.0998 101 46.4998 99.5C44.5998 95.1 42.5997 90.7 40.6997 86.3C39.5997 83.8 41.0998 81.5 43.7998 81.5C51.0998 81.5 58.2998 81.5 65.5998 81.5C66.8998 81.5 67.6998 82.2 67.7998 83.3C67.7998 84.5 66.9998 85.2 65.5998 85.2C58.9998 85.2 52.3998 85.2 45.7998 85.2C45.3998 85.2 44.8998 85.2 44.2998 85.2C44.3998 85.6 44.4998 85.9 44.5998 86.1C46.1998 89.8 47.8998 93.5 49.4998 97.2C49.7998 97.8 50.0997 98 50.6997 98C58.7997 98 66.8998 98 74.9998 98C75.3998 98 75.9998 97.7 76.0998 97.4C77.8998 93.5 79.5998 89.5 81.3998 85.5C81.1998 85.4 81.1997 85.3 81.1997 85.1Z" fill="#111111"/>
<path d="M62.5999 21.4999C56.3999 21.4999 50.1999 21.4999 43.9999 21.4999C43.5999 21.4999 43.2999 21.4999 42.8999 21.4999C41.9999 21.2999 41.3999 20.6999 41.3999 19.6999C41.3999 18.6999 41.9999 18.0999 42.8999 17.8999C43.1999 17.7999 43.5999 17.8999 43.9999 17.8999C56.3999 17.8999 68.7998 17.8999 81.1998 17.8999C81.5998 17.8999 81.8999 17.8999 82.2999 17.8999C83.1999 18.0999 83.7999 18.6999 83.7999 19.6999C83.7999 20.6999 83.1999 21.2999 82.2999 21.4999C81.9999 21.5999 81.5998 21.4999 81.1998 21.4999C75.0998 21.4999 68.7999 21.4999 62.5999 21.4999Z" fill="#111111"/>
<path d="M62.5999 93.3001C59.9999 93.3001 57.2998 93.3001 54.6998 93.3001C53.1998 93.3001 52.4999 92.7001 52.3999 91.5001C52.3999 90.3001 53.1998 89.6001 54.6998 89.6001C59.9998 89.6001 65.2999 89.6001 70.5999 89.6001C72.0999 89.6001 72.7999 90.2001 72.8999 91.4001C72.8999 92.6001 72.0999 93.3001 70.5999 93.3001C67.8999 93.3001 65.1999 93.3001 62.5999 93.3001Z" fill="#111111"/>
<path d="M32.9999 17.8999C33.9999 17.8999 34.7999 18.7999 34.6999 19.7999C34.5999 20.7999 33.7999 21.4999 32.8999 21.4999C31.8999 21.4999 31.0999 20.5999 31.1999 19.5999C31.1999 18.5999 31.9999 17.8999 32.9999 17.8999Z" fill="#111111"/>
<path d="M94.0997 19.7999C94.0997 20.7999 93.2998 21.5999 92.2998 21.5999C91.2998 21.5999 90.4998 20.7999 90.4998 19.6999C90.4998 18.6999 91.2998 17.8999 92.2998 17.8999C93.2998 17.8999 94.1997 18.7999 94.0997 19.7999Z" fill="#111111"/>
</svg>
