<svg width="100" height="126" viewBox="0 0 100 126" fill="none" xmlns="http://www.w3.org/2000/svg">
<path d="M47.8 125.1C47.2001 124.9 46.6001 124.9 46.1001 124.6C44.3001 123.9 42.3 123.4 40.8 122.3C33.1 116.5 25.3 110.9 18 104.7C7.70005 95.7999 2.10004 84.3 0.600044 70.8C0.400044 68.7 0.300049 66.5 0.300049 64.4C0.300049 58.4 0.300049 52.4 0.300049 46.4C0.300049 44.8 0.900044 44 2.10004 44.1C3.30004 44.1 3.90005 44.9 3.90005 46.5C3.90005 53.4 3.70005 60.2 4.00005 67.1C4.60005 82.5 11.2 95.1 23.3 104.6C29.4 109.4 35.6 114 41.7 118.7C46.4 122.3 52.3 122.7 56.7 119.3C64.1 113.8 71.6001 108.3 78.6001 102.3C88.3 94 93.7 83.2 95.2 70.5C95.4 68.5 95.5 66.4 95.5 64.3C95.5 58.2 95.5 52.1 95.5 45.9C95.5 45.4 95.5001 44.9 95.6001 44.5C95.8 43.7 96.5 43.2 97.3 43.2C98.2001 43.2 98.8 43.6 99 44.5C99.1 44.8 99.1001 45.1 99.1001 45.3C99.1001 52.6 99.3 59.8 99 67.1C98.3 83.6 91.3 97 78.3 107.2C72.2001 112 65.9 116.7 59.8 121.4C57.3 123.3 54.5 124.3 51.5 125C50.4 125.1 49.1 125.1 47.8 125.1Z" fill="#111111"/>
<path d="M8.09995 47.6998C8.09995 41.1998 8.09995 34.6998 8.09995 28.1998C8.09995 23.9998 10.2 21.0998 14.2 19.5998C24.0999 16.0998 34.1 12.3998 44.1 8.99984C47.7 7.69984 51.6 7.69984 55.2 8.89984C65.4 12.3998 75.5 15.9998 85.6 19.6998C89.3 20.9998 91.3999 23.9998 91.3999 27.9998C91.3999 35.6998 91.3999 43.4998 91.3999 51.1998C91.3999 52.4998 90.7 53.2998 89.6 53.3998C88.5 53.3998 87.7999 52.5998 87.7 51.2998C87.7 50.9998 87.7 50.6998 87.7 50.3998C87.7 43.2998 87.7 36.0998 87.7 28.9998C87.7 25.1998 86.8999 24.0998 83.3999 22.7998C73.7999 19.3998 64.1 15.8998 54.5 12.4998C51.4 11.3998 48.1 11.3998 45.1 12.4998C35.3 15.8998 25.5999 19.3998 15.8999 22.7998C12.7999 23.8998 11.8 25.2998 11.8 28.5998C11.8 40.4998 11.8 52.3998 11.8 64.3998C11.8 78.4998 17.5 89.7998 28.5 98.3998C34.4 103 40.3 107.5 46.3 112C48.8 113.9 50.8 113.9 53.3 112C59.3 107.4 65.2 102.9 71.2 98.2998C79.8999 91.5998 85.2999 82.8998 87.2 72.0998C87.7 69.1998 87.7 66.1998 87.8 63.2998C87.9 62.1998 87.8 61.0998 87.8 59.9998C87.9 58.8998 88.6 58.1998 89.6 58.1998C90.6 58.1998 91.3999 58.8998 91.3999 59.8998C92.0999 73.6998 88.7 86.0998 78.8999 96.0998C75.5999 99.4998 71.6 102.4 67.8 105.4C63.8 108.6 59.6 111.7 55.5 114.8C51.6 117.8 47.9 117.8 44 114.8C37.5 109.8 30.8 105 24.5 99.6998C13.9 90.7998 8.49995 79.1998 8.19995 65.3998C7.99995 59.5998 8.09995 53.6998 8.09995 47.6998Z" fill="#111111"/>
<path d="M76.7 79.0998C77.2 79.1998 77.6 79.1998 77.9 79.1998C78.9 79.3998 79.5 79.9998 79.4 81.0998C79.3 82.0998 78.7 82.6998 77.7 82.7998C76.5 82.7998 75.3 82.7998 73.9 82.7998C73.9 83.3998 73.9 83.8998 73.9 84.3998C74.3 89.9998 71.7 91.5998 67 91.1998C66 91.0998 65.1 91.1998 64.1 91.1998C61 91.1998 59.1 89.2998 59.1 86.1998C59.1 85.0998 59.1 83.9998 59.1 82.8998C52.8 82.8998 46.7 82.8998 40.5 82.8998C40.5 83.9998 40.5 84.9998 40.5 86.0998C40.5 89.3998 38.6 91.2998 35.3 91.2998C33.7 91.2998 32.1 91.2998 30.6 91.2998C27.7 91.2998 25.8 89.3998 25.8 86.4998C25.8 85.3998 25.8 84.1998 25.8 82.8998C24.7 82.8998 23.6 82.8998 22.6 82.8998C21.1 82.8998 20.3 82.3998 20.2 81.1998C20.1 79.9998 20.8 79.3998 22.4 79.1998C22.5 79.1998 22.6 79.1998 22.9 79.0998C22.9 78.6998 22.9 78.2998 22.9 77.7998C22.9 74.3998 22.9 71.0998 22.9 67.6998C22.9 64.7998 24 63.3998 26.8 62.4998C27.1 62.3998 27.4 61.8998 27.5 61.5998C28.2 57.8998 28.7 54.2998 29.4 50.5998C29.9 47.5998 32.1 45.7998 35.2 45.7998C45 45.7998 54.7 45.7998 64.5 45.7998C67.6 45.7998 69.8 47.5998 70.3 50.6998C71 54.2998 71.5 57.9998 72.2 61.5998C72.3 61.9998 72.6 62.4998 73 62.5998C75.6 63.3998 76.8 64.8998 76.8 67.5998C76.8 70.9998 76.8 74.3998 76.8 77.7998C76.7 78.1998 76.7 78.5998 76.7 79.0998ZM73 79.0998C73 75.0998 73 71.1998 73 67.2998C73 66.2998 72.4 66.0998 71.5 66.0998C56.9 66.0998 42.4 66.0998 27.8 66.0998C26.7 66.0998 26.3 66.5998 26.3 67.6998C26.3 70.0998 26.3 72.3998 26.3 74.7998C26.3 76.1998 26.3 77.6998 26.3 79.1998C42 79.0998 57.4 79.0998 73 79.0998ZM68.5 62.3998C67.8 58.4998 67.2 54.6998 66.5 50.8998C66.3 49.6998 65.3 49.3998 64.2 49.3998C54.6 49.3998 45 49.3998 35.4 49.3998C33.7 49.3998 33.1 49.8998 32.8 51.5998C32.5 53.0998 32.3 54.5998 32 56.0998C31.7 58.1998 31.3 60.1998 31 62.2998C43.5 62.3998 55.9 62.3998 68.5 62.3998ZM29.2 82.8998C29.2 84.1998 29.1 85.3998 29.3 86.5998C29.3 86.9998 30 87.4998 30.4 87.5998C32.1 87.6998 33.9 87.6998 35.6 87.5998C36 87.5998 36.6 86.9998 36.7 86.5998C36.8 85.3998 36.8 84.1998 36.8 82.9998C34.2 82.8998 31.8 82.8998 29.2 82.8998ZM62.7 82.8998C62.7 84.1998 62.6 85.3998 62.8 86.4998C62.9 86.8998 63.5 87.4998 63.9 87.5998C65.6 87.6998 67.3 87.6998 69 87.5998C69.4 87.5998 70.1 86.9998 70.1 86.6998C70.2 85.4998 70.2 84.1998 70.2 82.8998C67.6 82.8998 65.3 82.8998 62.7 82.8998Z" fill="#111111"/>
<path d="M0 31.5999C0.2 29.0999 0.0999969 26.4999 0.699997 23.9999C2.1 18.0999 5.9 14.2999 11.6 12.1999C21.5 8.6999 31.3 5.0999 41.2 1.6999C46.8 -0.200098 52.5 -0.200098 58 1.6999C67.9 5.0999 77.8 8.6999 87.6 12.1999C95.1 14.8999 99.1 20.5999 99.1 28.5999C99.1 31.0999 99.1 33.5999 99.1 36.0999C99.1 37.4999 98.4 38.2999 97.3 38.2999C96.2 38.2999 95.5 37.4999 95.5 35.9999C95.5 33.3999 95.5 30.8999 95.5 28.2999C95.5 22.0999 92.4 17.6999 86.5 15.5999C76.6 11.9999 66.6 8.3999 56.6 4.9999C52 3.3999 47.2 3.3999 42.6 4.9999C32.5 8.3999 22.5 12.0999 12.4 15.6999C7 17.5999 3.8 22.0999 3.7 27.7999C3.6 30.7999 3.7 33.6999 3.6 36.6999C3.6 37.3999 3.3 38.2999 2.8 38.6999C1.7 39.5999 0.0999985 38.7999 0.0999985 37.1999C-1.52737e-06 35.2999 0.0999985 33.3999 0.0999985 31.4999C0.199998 31.5999 0.1 31.5999 0 31.5999Z" fill="#111111"/>
<path d="M47.3 27.4999C49.1 25.6999 50.9 23.8999 52.7 22.0999C54.6 20.2999 56.9 19.8999 59.1 20.7999C62.5 22.2999 63.6 26.6999 61.1 29.3999C57.8 32.8999 54.4 36.2999 51 39.5999C49 41.4999 45.8 41.4999 43.7 39.4999C42 37.8999 40.3 36.1999 38.7 34.4999C36.7 32.2999 36.8 28.9999 38.8 26.8999C40.9 24.7999 44.2 24.5999 46.5 26.5999C46.6 26.8999 46.9 27.0999 47.3 27.4999ZM58.7 26.0999C58.6 25.6999 58.6 25.4999 58.5 25.2999C58 23.8999 56.3 23.5999 55.1 24.6999C53.1 26.6999 51.1 28.5999 49.2 30.5999C47.5 32.2999 46.9 32.2999 45.1 30.5999C44.8 30.2999 44.5 29.9999 44.2 29.6999C43.2 28.6999 42 28.6999 41.2 29.4999C40.4 30.2999 40.4 31.3999 41.4 32.3999C42.8 33.7999 44.1 35.1999 45.5 36.4999C46.6 37.4999 47.6 37.5999 48.7 36.4999C51.7 33.4999 54.8 30.3999 57.8 27.3999C58.3 27.0999 58.5 26.4999 58.7 26.0999Z" fill="#111111"/>
<path d="M49.6999 74.4999C47.9999 74.4999 46.1999 74.4999 44.4999 74.4999C43.1999 74.4999 42.3999 73.7999 42.3999 72.6999C42.3999 71.5999 43.1999 70.8999 44.4999 70.8999C47.9999 70.8999 51.5999 70.8999 55.0999 70.8999C56.3999 70.8999 57.0999 71.5999 57.0999 72.6999C57.0999 73.7999 56.3999 74.5999 55.0999 74.5999C53.1999 74.4999 51.4999 74.4999 49.6999 74.4999Z" fill="#111111"/>
<path d="M34.3999 74.4999C33.8999 74.4999 33.2999 74.4999 32.7999 74.4999C31.7999 74.3999 31.0999 73.5999 31.1999 72.5999C31.2999 71.5999 31.8999 71 32.8999 70.9C33.8999 70.8 34.7999 70.8 35.7999 70.9C36.8999 71 37.5999 71.6999 37.5999 72.6999C37.5999 73.6999 36.8999 74.3999 35.8999 74.4999C35.2999 74.4999 34.8999 74.4999 34.3999 74.4999Z" fill="#111111"/>
<path d="M65.0999 74.4999C64.5999 74.4999 63.9999 74.4999 63.4999 74.4999C62.4999 74.3999 61.7999 73.5999 61.8999 72.5999C61.9999 71.5999 62.5999 71 63.5999 70.9C64.5999 70.8 65.4999 70.8 66.4999 70.9C67.5999 71 68.2999 71.6999 68.2999 72.6999C68.2999 73.6999 67.5999 74.3999 66.5999 74.4999C66.0999 74.4999 65.5999 74.4999 65.0999 74.4999Z" fill="#111111"/>
</svg>
