<svg width="111" height="111" viewBox="0 0 111 111" fill="none" xmlns="http://www.w3.org/2000/svg">
<path d="M17.0999 82.4C17.4999 82 17.8999 81.7 18.0999 81.4C19.7999 79.3 21.5 77.2 23.2 75C23.5 74.7 23.7 74.2 23.7 73.8C23.7 65.9 23.7 57.9 23.7 50C23.7 49.9 23.6999 49.7 23.5999 49.5C16.3999 50.1 10.2999 47.9 5.49994 42.4C1.99994 38.4 0.499927 33.7 0.799927 28.5C1.49993 17.6 11.4999 8.9 23.5999 10.1C23.5999 9.1 23.5999 8.1 23.5999 7C23.5999 2.8 25.8999 0.5 30.0999 0.5C54.5999 0.5 79.2 0.5 103.7 0.5C108 0.5 110.2 2.8 110.2 7C110.2 39.4 110.2 71.8 110.2 104.2C110.2 108.5 108 110.7 103.7 110.7C79.7 110.7 55.7 110.7 31.7 110.7C29.3 110.7 26.8999 110.7 24.5999 110.5C23.7999 110.4 22.8999 110 22.0999 109.6C21.4999 109.3 20.9 108.8 20.4 108.2C19.5 107.2 18.2999 107.3 17.0999 107.3C16.8999 107.3 16.5999 107.6 16.4999 107.8C15.7999 109.2 14.7 109.7 13.2 109.7C10.2 109.7 7.09991 109.7 4.09991 109.7C1.89991 109.7 0.699951 108.4 0.699951 106.2C0.699951 98 0.699951 89.7 0.699951 81.5C0.699951 79.3 1.99995 78 4.19995 78C6.79995 78 9.49991 78 12.0999 78C15.7999 78.2 16.4999 78.8 17.0999 82.4ZM53.7 108.3C54.4 108.3 54.8999 108.3 55.2999 108.3C65.3999 108.3 75.4999 108.3 85.4999 108.3C91.5999 108.3 97.6 108.3 103.7 108.3C104.4 108.3 105.1 108.3 105.7 108.1C107.2 107.6 107.8 106.4 107.8 104.4C107.8 72.5 107.8 40.5 107.8 8.6C107.8 7.8 107.8 7.1 107.8 6.3C107.7 4.7 106.7 3.5 105.1 3.2C104.6 3.1 104.2 3.1 103.7 3.1C79.2 3.1 54.7999 3.1 30.2999 3.1C29.9999 3.1 29.7999 3.1 29.4999 3.1C27.4999 3.2 26.3 4.5 26.2 6.5C26.2 7.5 26.3 8.5 26.2 9.5C26.1 10.5 26.5 10.8 27.4 11.1C36.1 13.8 41.6999 21.6 41.4999 30.7C41.2999 38.8 35.5 46.2 27.2 48.8C26.4 49 26.0999 49.3 26.0999 50.2C26.0999 56.8 26.0999 63.5 26.0999 70.1C26.0999 70.4 26.1 70.7 26.2 71.3C26.8 70.6 27.2 70 27.7 69.5C28.8 68.5 29.0999 67.2 28.9999 65.8C28.8999 63.8 28.8999 61.7 28.9999 59.7C28.9999 58.2 29.9 57.4 31.4 57.3C32.3 57.3 33.2 57.3 34.2 57.3C38.7999 57.6 42.5 60.9 43.2 65.4C43.5 67.4 43.4 69.4 43.4 71.4C43.4 72.5 43.4 73.6 43.4 74.8C44.1 74.6 44.7 74.4 45.2 74.4C48.7999 74.4 52.4999 74.2 56.0999 74.4C58.7999 74.5 60.8 77 60.9 79.7C60.9 81.5 60.1 82.9 58.9 84.1C62 87.6 61.4 90.7 57.2 93.6C59.2 97 58.0999 101 53.5999 102.4C54.7999 104.2 54.7 106.1 53.7 108.3ZM16.9999 105.1C19.8999 104.2 21.5999 105.9 23.4999 107.4C23.5999 107.5 23.6999 107.6 23.7999 107.6C24.2999 107.8 24.8 108.1 25.4 108.1C29.2 108.2 32.9999 108.1 36.7999 108.1C37.1999 108.1 37.4999 108.1 37.9999 108.1C36.5999 105.3 37.1 102.9 39.2 100.9C37.7999 99.5 36.9999 98 37.2999 96C37.4999 94.1 38.5999 92.7 40.2999 91.7C38.9999 90.2 38.7999 88.5 39.0999 86.4C36.4999 89.3 33.7999 91.2 30.4999 92.4C29.0999 92.9 28.2999 92.8 27.9999 92C27.6999 91.1 28.0999 90.7 29.5999 90.1C35.3999 87.8 39.5999 83.7 40.5999 77.5C41.1999 73.7 41.1 69.8 40.9 65.9C40.8 63.2 39 61.3 36.4 60.2C36 62.6 34.7999 64.3 32.5999 65.1C31.8999 65.4 31.7 65.7 31.7 66.4C31.8 67.9 31.2999 69.2 30.2999 70.4C27.0999 74.3 24 78.2 20.9 82.1C19.9 83.4 18.9999 84.8 17.0999 84.7C16.9999 91.6 16.9999 98.2 16.9999 105.1ZM14.4 94.2C14.4 90.2 14.4 86.2 14.4 82.2C14.4 80.8 14.3 80.7 12.9 80.7C10.2 80.7 7.49995 80.7 4.69995 80.7C3.69995 80.7 3.29996 81 3.39996 82C3.39996 90 3.39996 98 3.39996 106C3.39996 107 3.69995 107.3 4.69995 107.3C7.49995 107.3 10.1999 107.2 12.9999 107.3C14.0999 107.3 14.4 106.9 14.4 105.8C14.4 102 14.4 98.1 14.4 94.2ZM21.2 12.6C20.1 12.7 19.0999 12.8 17.9999 12.9C5.09994 15.2 -1.00007 29.6 6.79993 40C12.2999 47.3 22.6999 49.3 30.5999 44.5C36.5999 40.9 39.9 34.1 38.9 27.7C37.6 18.9 30.3 12.7 21.2 12.6ZM49.7 91.2C51.4 91.2 53.1 91.2 54.7 91.2C54.7999 91.2 54.9 91.2 54.9 91.2C56.9 91.1 58.1 90 58.2 88.2C58.2 86.4 56.9999 85.2 54.9999 85.2C51.4999 85.1 48 85.1 44.4 85.2C42.4 85.2 41.2 86.5 41.2 88.2C41.2 89.9 42.5 91.1 44.4 91.2C46.3 91.2 48 91.2 49.7 91.2ZM47.5999 99.7C49.1999 99.7 50.8999 99.7 52.4999 99.7C54.3999 99.7 55.5999 98.4 55.5999 96.7C55.5999 95 54.3999 93.8 52.4999 93.7C49.1999 93.7 46 93.7 42.7 93.7C40.7999 93.7 39.4999 95 39.4999 96.7C39.4999 98.4 40.7999 99.6 42.7 99.6C44.4 99.7 45.9999 99.7 47.5999 99.7ZM50.7 82.7C52.1 82.7 53.4999 82.7 54.9999 82.7C55.0999 82.7 55.2 82.7 55.2 82.7C57.1 82.6 58.4 81.5 58.4 79.8C58.5 78 57.1999 76.7 55.2999 76.7C52.1999 76.6 49.1999 76.6 46.0999 76.7C44.1999 76.7 42.9999 78 42.9999 79.7C42.9999 81.4 44.2999 82.6 46.2 82.7C47.7 82.7 49.2 82.7 50.7 82.7ZM45.7 108.2C46.7999 108.2 47.8 108.2 48.9 108.2C50.7 108.1 51.9 106.9 51.9 105.3C51.9 103.7 50.7999 102.4 48.9999 102.3C46.7999 102.2 44.5999 102.2 42.2999 102.3C40.5999 102.4 39.4 103.7 39.4 105.3C39.4 106.9 40.5999 108.1 42.2999 108.2C43.5999 108.3 44.7 108.2 45.7 108.2ZM31.7 59.8C31.7 60.8 31.7 61.7 31.7 62.7C33 62.2 33.4999 61.4 33.5999 59.8C32.9999 59.8 32.4 59.8 31.7 59.8Z" fill="#111111"/>
<path d="M85.7001 29.8C85.8 40 77.4001 48.4 67.2001 48.4C57.0001 48.5 48.6 40.1 48.6 30C48.5 19.7 56.8 11.3 67 11.3C77.2 11.3 85.6001 19.5 85.7001 29.8ZM83.1 30.3C83.5 21.9 76.6 14.3 68 13.8C59.2 13.3 51.4 20.1 51 28.7C50.5 38 57.2 45.4 66.5 45.9C75.2 46.4 82.7 39.4 83.1 30.3Z" fill="#111111"/>
<path d="M91.9999 59.1001C93.6999 59.1001 95.4 59.1001 97.2 59.1001C99.2 59.1001 100.3 60.3001 100.3 62.2001C100.3 65.6001 100.3 69.1001 100.3 72.5001C100.3 74.5001 99.2 75.6001 97.2 75.7001C93.7 75.7001 90.1999 75.7001 86.7999 75.7001C84.8999 75.7001 83.7 74.5001 83.7 72.6001C83.7 69.1001 83.7 65.6001 83.7 62.2001C83.7 60.2001 84.9 59.1001 86.9 59.1001C88.5 59.1001 90.1999 59.1001 91.9999 59.1001ZM91.9 73.2001C93.5 73.2001 94.9999 73.2001 96.5999 73.2001C97.3999 73.2001 97.8 73.0001 97.7 72.1001C97.7 68.9001 97.7 65.7001 97.7 62.6001C97.7 61.9001 97.5 61.6001 96.7 61.6001C93.5 61.6001 90.2999 61.6001 86.9999 61.6001C86.1999 61.6001 85.9999 61.9001 85.9999 62.7001C85.9999 65.8001 85.9999 69.0001 85.9999 72.1001C85.9999 72.9001 86.1999 73.3001 87.0999 73.2001C88.7999 73.2001 90.3 73.2001 91.9 73.2001Z" fill="#111111"/>
<path d="M100.3 92C100.3 93.7 100.3 95.4 100.3 97.2C100.3 99.2 99.0999 100.3 97.0999 100.3C93.6999 100.3 90.1999 100.3 86.7999 100.3C84.7999 100.3 83.5999 99.2 83.5999 97.2C83.5999 93.7 83.5999 90.2 83.5999 86.8C83.5999 84.9 84.7999 83.7 86.6999 83.7C90.1999 83.7 93.6999 83.7 97.0999 83.7C99.0999 83.7 100.2 84.8999 100.2 86.8999C100.3 88.5999 100.3 90.3 100.3 92ZM86.0999 92C86.0999 93.6 86.0999 95.1 86.0999 96.7C86.0999 97.5 86.2999 97.8 87.0999 97.8C90.2999 97.8 93.4999 97.8 96.7999 97.8C97.5999 97.8 97.7999 97.5 97.7999 96.8C97.7999 93.6 97.7999 90.4 97.7999 87.1C97.7999 86.3 97.4999 86.1 96.7999 86.1C93.5999 86.1 90.3999 86.1 87.0999 86.1C86.2999 86.1 86.0999 86.4 86.0999 87.1C86.0999 88.8 86.0999 90.4 86.0999 92Z" fill="#111111"/>
<path d="M64.8 64.8999C61.3 64.8999 57.8 64.8999 54.2 64.8999C53.3 64.8999 52.5 64.6999 52.5 63.6999C52.5 62.5999 53.3 62.3999 54.2 62.3999C61.2 62.3999 68.3 62.3999 75.3 62.3999C76.2 62.3999 76.9 62.6999 76.9 63.6999C76.9 64.6999 76.1 64.8999 75.3 64.8999C71.9 64.8999 68.4 64.8999 64.8 64.8999Z" fill="#111111"/>
<path d="M71.3999 97C70.0999 97 68.6999 97 67.3999 97C66.4999 97 65.8999 96.6 65.8999 95.7C65.8999 94.8 66.5999 94.5 67.3999 94.5C70.0999 94.5 72.7999 94.5 75.5999 94.5C76.3999 94.5 77.0999 94.8 77.0999 95.7C77.0999 96.7 76.4999 97 75.5999 97C74.0999 97 72.6999 97 71.3999 97Z" fill="#111111"/>
<path d="M72.0999 69.8999C73.2999 69.8999 74.5 69.8999 75.7 69.8999C76.5 69.8999 76.9999 70.2999 77.0999 71.0999C77.0999 71.9999 76.5999 72.3999 75.7999 72.3999C73.3999 72.3999 70.8999 72.3999 68.4999 72.3999C67.6999 72.3999 67.2 71.8999 67.2 71.0999C67.2 70.2999 67.6999 69.9999 68.4999 69.8999C69.5999 69.8999 70.8999 69.8999 72.0999 69.8999Z" fill="#111111"/>
<path d="M71.9999 89.5C70.7999 89.5 69.5999 89.5 68.3999 89.5C67.5999 89.5 67.0999 89.1 67.0999 88.3C67.0999 87.5 67.5999 87 68.3999 87C70.7999 87 73.1999 87 75.5999 87C76.3999 87 76.8999 87.4 76.8999 88.3C76.8999 89.2 76.2999 89.6 75.4999 89.6C74.3999 89.5 73.1999 89.5 71.9999 89.5Z" fill="#111111"/>
<path d="M21.2 14.8999C29.7 14.8999 36.6999 21.5999 36.5999 29.8999C36.5999 38.0999 29.5999 44.8999 21.0999 44.8999C12.5999 44.8999 5.69995 38.1999 5.69995 29.8999C5.79995 21.5999 12.7 14.8999 21.2 14.8999ZM21.2 17.3999C14.1 17.3999 8.29993 22.8999 8.29993 29.7999C8.19993 36.5999 14.1 42.2999 21.2 42.2999C28.3 42.2999 34.0999 36.6999 34.0999 29.8999C34.1999 23.0999 28.4 17.3999 21.2 17.3999Z" fill="#111111"/>
<path d="M69.9999 24.8001C71.0999 24.1001 71.9999 23.6001 72.9999 23.1001C74.1999 22.4001 74.9999 22.6001 75.6999 23.8001C77.5999 26.8001 77.4999 27.0001 74.4999 28.8001C73.8999 29.1001 73.3999 29.5001 72.6999 29.9001C73.6999 30.5001 74.6998 31.0001 75.5998 31.5001C76.9998 32.3001 77.1999 33.1001 76.3999 34.4001C74.6999 37.4001 74.5998 37.4001 71.5998 35.7001C71.1998 35.5001 70.6998 35.2001 70.0998 34.9001C70.0998 36.1001 70.0998 37.1001 70.0998 38.1001C70.0998 39.8001 69.4999 40.3001 67.8999 40.3001C64.5999 40.3001 64.4999 40.2001 64.4999 36.9001C64.4999 36.2001 64.4999 35.5001 64.4999 34.6001C63.3999 35.2001 62.4998 35.8001 61.5998 36.3001C60.1998 37.1001 59.4999 36.9001 58.6999 35.5001C56.9999 32.5001 56.9999 32.4001 59.9999 30.7001C60.4999 30.4001 60.8999 30.2001 61.4999 29.8001C60.3999 29.2001 59.3999 28.7001 58.4999 28.1001C57.2999 27.4001 57.0998 26.6001 57.7998 25.4001C59.4998 22.3001 59.6999 22.2001 62.6999 24.0001C63.1999 24.3001 63.6999 24.6001 64.4999 25.0001C64.4999 23.7001 64.4999 22.6001 64.4999 21.6001C64.4999 20.1001 64.9999 19.6001 66.4999 19.6001C70.0999 19.5001 70.1999 19.6001 70.1999 23.2001C69.9999 23.6001 69.9999 24.1001 69.9999 24.8001ZM74.0998 24.5001C73.8998 24.5001 73.8999 24.5001 73.8999 24.5001C72.5999 25.2001 71.2999 26.0001 69.9999 26.7001C68.7999 27.4001 68.2998 27.1001 68.2998 25.7001C68.2998 24.2001 68.2998 22.7001 68.2998 21.2001C67.4998 21.2001 66.7999 21.2001 65.9999 21.2001C65.9999 22.8001 65.9999 24.3001 65.9999 25.7001C65.9999 27.3001 65.4998 27.5001 64.0998 26.7001C62.7998 25.9001 61.3999 25.2001 59.9999 24.3001C59.5999 25.0001 59.2999 25.7001 58.8999 26.4001C60.2999 27.2001 61.5999 27.9001 62.8999 28.7001C64.0999 29.4001 64.0999 30.0001 62.8999 30.7001C61.5999 31.4001 60.2999 32.2001 58.9999 32.9001C59.3999 33.6001 59.7999 34.2001 60.1999 34.9001C61.3999 34.2001 62.4998 33.5001 63.5998 32.9001C64.1998 32.6001 64.8998 32.4001 65.5998 32.2001C65.7998 32.9001 65.9999 33.6001 65.9999 34.3001C66.0999 35.6001 65.9999 37.0001 65.9999 38.3001C66.3999 38.3001 66.6999 38.3001 66.8999 38.3001C68.0999 38.5001 68.3998 38.0001 68.2998 36.8001C68.1998 35.8001 68.2998 34.7001 68.2998 33.7001C68.2998 32.2001 68.7998 31.9001 70.0998 32.6001C71.3998 33.3001 72.6999 34.1001 73.9999 34.8001C74.3999 34.0001 74.6998 33.4001 75.0998 32.7001C73.7998 32.0001 72.6999 31.4001 71.4999 30.7001C70.9999 30.4001 70.5998 29.9001 70.0998 29.5001C70.4998 29.1001 70.8999 28.6 71.3999 28.2001C72.5999 27.4001 73.8999 26.7001 75.1999 26.0001C74.7999 25.6001 74.4998 25.0001 74.0998 24.5001Z" fill="#111111"/>
<path d="M91.4 66.6C92.1 66.2 92.7 65.7 93.3 65.4C94 65 94.7 65.1 94.9 65.8C95.1 66.2 94.9 67.1 94.6 67.4C93.6 68.2 92.6 68.9 91.5 69.5C91.2 69.7 90.5 69.6 90.3 69.4C89.7 68.8 89.2 68.1 88.9 67.4C88.8 67.1 89 66.3 89.3 66.1C89.7 65.9 90.3 65.9 90.8 66C90.9 66 91.1 66.3 91.4 66.6Z" fill="#111111"/>
<path d="M91.3 91.2C92 90.7 92.6 90.3 93.3 89.9C94 89.5 94.7001 89.7 94.9001 90.3C95.1001 90.7 94.9 91.6 94.6 91.9C93.7 92.7 92.6 93.4 91.6 93.9C91.2 94.1 90.5 94 90.2 93.8C89.6 93.3 89.2001 92.6 88.9001 91.9C88.8001 91.5 88.9 90.7 89.2 90.5C89.6 90.3 90.2 90.4 90.7 90.5C91 90.6 91.1 91 91.3 91.2Z" fill="#111111"/>
<path d="M16.6999 33.2999C16.5999 32.4999 16.9999 31.8999 17.7999 31.7999C18.5999 31.6999 18.9999 32.2999 19.1999 32.9999C19.4999 34.3999 20.2999 34.9999 21.4999 34.8999C22.4999 34.7999 23.0999 34.2999 23.2999 33.1999C23.3999 32.1999 22.9999 31.4999 21.9999 31.1999C21.5999 31.0999 21.1999 30.9999 20.7999 30.9999C18.8999 30.7999 17.1999 29.2999 16.8999 27.4999C16.4999 25.5999 17.3999 23.6999 19.0999 22.6999C19.6999 22.3999 20.0999 22.0999 20.1999 21.2999C20.1999 20.8999 20.8999 20.2999 21.3999 20.1999C22.0999 20.0999 22.6999 20.5999 22.5999 21.3999C22.5999 22.0999 22.8999 22.3999 23.4999 22.6999C24.9999 23.3999 25.7999 24.5999 25.8999 26.2999C25.9999 27.0999 25.6999 27.6999 24.7999 27.7999C23.9999 27.8999 23.5999 27.3999 23.3999 26.5999C22.9999 25.0999 22.1999 24.3999 20.9999 24.6999C19.9999 24.8999 19.3999 25.4999 19.3999 26.4999C19.3999 27.4999 19.9999 28.2999 20.9999 28.3999C21.4999 28.4999 21.9999 28.4999 22.4999 28.5999C24.2999 28.9999 25.6999 30.4999 25.8999 32.1999C26.1999 34.0999 25.2999 35.8999 23.5999 36.7999C22.9999 37.0999 22.5999 37.2999 22.5999 38.0999C22.5999 38.8999 22.0999 39.2999 21.2999 39.2999C20.4999 39.2999 20.0999 38.7999 20.0999 37.9999C20.0999 37.2999 19.7999 37.0999 19.2999 36.7999C17.6999 36.2999 16.7999 34.9999 16.6999 33.2999Z" fill="#111111"/>
</svg>
