<svg width="117" height="59" viewBox="0 0 117 59" fill="none" xmlns="http://www.w3.org/2000/svg">
<path d="M0.5 58.7C6 52.3 11.8 45.1 17.3 38.7C16.4 37.6 14.3 34.8 13.8 30.5C13.3 26 14.8 22.6 15.5 21.4C15.7 22.1 16.2 23.8 17.7 25.2C19.2 26.6 20.9 27.1 22.6 27.4C26.4 28 34.7 28.3 45.7 28C47.8 27.9 49.9 28.5 51.6 29.8C52.4 30.4 53.1 31 53.6 31.7C55.3 33.7 56.1 36.2 56.2 38.8L56.5 58.6C52 58.5 47.6 58.7 43.1 58.6L43 40.1L32.5 40.2C27.2 46.3 21.9 52.5 16.6 58.6C11.3 58.4 5.8 58.9 0.5 58.7Z" fill="#151515"/>
<path d="M9.40008 35.3C8.50008 34.6 1.60008 29.3 1.40008 20.2C1.30008 13.3 5.20008 8.60001 6.40008 7.20001C12.9001 -0.199993 22.2001 7.1731e-06 23.6001 7.1731e-06C34.5001 0.100007 45.5001 0.200007 56.4001 0.300007C56.4001 1.60001 56.2001 3.70001 55.2001 5.90001C54.5001 7.40001 53.5001 8.60001 52.4001 9.60001C49.9001 11.9 46.6001 13 43.2001 13C36.6001 12.9 29.9001 12.8 23.3001 12.7C21.4001 13.1 17.7001 14.1 14.4001 17.2C10.1001 21.4 9.40008 26.7 9.20008 28.8C8.90008 31.5 9.10008 33.7 9.40008 35.3Z" fill="#151515"/>
<path d="M116.9 58.7C111.4 52.3 105.6 45.1 100.1 38.7C101 37.6 103.1 34.8 103.6 30.5C104.1 26 102.6 22.6 101.9 21.4C101.7 22.1 101.2 23.8 99.6999 25.2C98.1999 26.6 96.4999 27.1 94.7999 27.4C90.9999 28 82.6999 28.3 71.6999 28C69.5999 27.9 67.4999 28.5 65.7999 29.8C64.9999 30.4 64.2999 31 63.7999 31.7C62.0999 33.7 61.2999 36.2 61.1999 38.8L60.8999 58.6C65.3999 58.5 69.7999 58.7 74.2999 58.6L74.3999 40.1L84.9999 40.2C90.2999 46.3 95.5999 52.5 100.9 58.6C106.1 58.4 111.6 58.9 116.9 58.7Z" fill="#151515"/>
<path d="M108 35.3C108.9 34.6 115.8 29.3 116 20.2C116.1 13.3 112.2 8.60001 111 7.20001C104.5 -0.199993 95.1999 7.1731e-06 93.7999 7.1731e-06C82.7999 0.100007 71.8999 0.200007 60.8999 0.400007C60.8999 1.70001 61.0999 3.80001 62.0999 6.00001C62.7999 7.50001 63.7999 8.70001 64.8999 9.70001C67.3999 12 70.6999 13.1 74.0999 13.1C80.6999 13 87.3999 12.9 93.9999 12.8C95.8999 13.2 99.5999 14.2 102.9 17.3C107.2 21.5 107.9 26.8 108.1 28.9C108.5 31.5 108.3 33.7 108 35.3Z" fill="#151515"/>
</svg>
