<svg width="94" height="48" viewBox="0 0 94 48" fill="none" xmlns="http://www.w3.org/2000/svg">
<path d="M0 47.9C4.4 42.8 9 37 13.4 31.9C12.7 31 11 28.8 10.6 25.3C10.2 21.8 11.4 19 12 18C12.1 18.6 12.5 19.9 13.7 21.1C14.9 22.2 16.3 22.6 17.6 22.8C20.6 23.3 27.3 23.5 36.1 23.3C37.8 23.2 39.5 23.7 40.8 24.7C41.4 25.2 42 25.7 42.4 26.2C43.7 27.8 44.4 29.8 44.4 31.9L44.6 47.7C41 47.6 37.5 47.8 33.9 47.7L34 33L25.6 33.1C21.4 38 17.1 43 12.9 47.9C8.6 47.7 4.2 48.1 0 47.9Z" fill="white"/>
<path d="M7.10005 29.1002C6.40005 28.6002 0.900046 24.3002 0.700046 17.0002C0.600046 11.4002 3.80005 7.70022 4.70005 6.60022C9.90005 0.70022 17.4 0.90022 18.5 0.90022C27.3 1.00022 36.1 1.00022 44.8 1.10022C44.8 2.20022 44.7 3.80022 43.8 5.60022C43.2 6.80022 42.4 7.80022 41.6 8.60022C39.6 10.4002 36.9 11.3002 34.2 11.3002C28.9 11.2002 23.6 11.1002 18.2 11.1002C16.7 11.4002 13.7 12.2002 11.1 14.7002C7.70005 18.0002 7.20005 22.3002 7.00005 24.0002C6.70005 26.1002 6.90005 27.9002 7.10005 29.1002Z" fill="white"/>
<path d="M93.3001 47.9C88.9001 42.8 84.3001 37 79.9001 31.9C80.6001 31 82.3 28.8 82.7 25.3C83.1 21.7 81.9001 19 81.4001 18C81.3001 18.6 80.9 19.9 79.7 21.1C78.5 22.2 77.1001 22.6 75.8001 22.8C72.8001 23.3 66.1 23.5 57.3 23.3C55.6 23.2 53.9 23.7 52.6 24.7C52 25.2 51.4 25.7 51 26.2C49.7 27.8 49 29.8 49 31.9L48.8 47.7C52.4 47.6 55.9 47.8 59.5 47.7L59.3 33L67.7 33.1C71.9 38 76.2001 43 80.4001 47.9C84.7001 47.7 89.1001 48.1 93.3001 47.9Z" fill="white"/>
<path d="M86.0999 29.1002C86.7999 28.6002 92.3999 24.3002 92.4999 17.0002C92.5999 11.4002 89.3999 7.70022 88.4999 6.60022C83.2999 0.70022 75.7999 0.90022 74.6999 0.90022C65.9999 1.00022 57.1999 1.00022 48.3999 1.10022C48.3999 2.20022 48.4999 3.80022 49.3999 5.60022C49.9999 6.80022 50.7999 7.80022 51.5999 8.60022C53.5999 10.4002 56.2999 11.3002 58.9999 11.3002C64.2999 11.2002 69.5999 11.1002 74.9999 11.1002C76.4999 11.4002 79.4999 12.2002 82.0999 14.7002C85.5999 18.1002 86.0999 22.3002 86.2999 24.0002C86.4999 26.1002 86.3999 27.9002 86.0999 29.1002Z" fill="white"/>
</svg>
