<svg width="29" height="24" viewBox="0 0 29 24" fill="none" xmlns="http://www.w3.org/2000/svg">
<path d="M10 0.299988C6.90001 0.299988 4.30001 2.8 4.40001 6C4.40001 9.1 7.00001 11.7 10.1 11.6C13.2 11.6 15.7 9.10002 15.7 5.90002C15.6 2.80002 13.1 0.299988 10 0.299988ZM10 10.2C7.60001 10.2 5.70001 8.30002 5.70001 5.90002C5.70001 3.50002 7.60001 1.59998 10 1.59998C12.4 1.59998 14.3 3.50002 14.3 5.90002C14.2 8.30002 12.3 10.2 10 10.2Z" fill="black"/>
<path d="M19.7999 18.6C19.7999 18.4 19.7999 18.1 19.6999 17.8C19.6999 17.7 19.6999 17.7 19.6999 17.6C19.5999 16.3 19.2999 15.1 18.6999 14C18.0999 13 17.3999 12.2001 16.2999 11.9001C15.9999 11.8001 15.6999 11.7 15.2999 11.7C15.2999 11.7 15.2999 11.7 15.1999 11.7C14.6999 11.6 14.1999 11.7 13.6999 12C13.3999 12.2 13.1999 12.3 12.8999 12.5C10.8999 13.7 8.99993 13.7 6.99993 12.5C6.69992 12.3 6.29993 12.1001 5.99993 11.9001C5.79993 11.8001 5.49992 11.7 5.29992 11.7C4.59992 11.7 3.79993 11.9 3.19993 12.2C2.09993 12.8 1.49993 13.7 0.999925 14.8C0.299925 16.5 0.0999249 18.3 0.199925 20.1C0.299925 21.8 1.29993 23.1 2.99993 23.6C3.29993 23.7 3.49992 23.7 3.79992 23.8H16.0999H16.1999C18.1999 23.6 19.5999 22.1 19.6999 20C19.8999 19.4 19.8999 19 19.7999 18.6ZM15.8999 22.3C13.9999 22.3 11.9999 22.3 10.0999 22.3H4.49993C3.89993 22.3 3.39992 22.2001 2.79992 21.9001C1.99992 21.5001 1.69993 20.8001 1.59993 19.9001C1.59993 18.3001 1.69992 16.8 2.29992 15.3C2.49992 14.7 2.79992 14.2 3.29992 13.7C3.79992 13.2 4.49993 12.9001 5.19993 12.9001C5.29993 12.9001 5.39992 13 5.39992 13C5.89992 13.3 6.39992 13.7001 6.89992 13.9001C9.19992 15.0001 11.4999 14.9 13.5999 13.5C13.8999 13.3 14.0999 13.2 14.3999 13C14.3999 13 14.3999 13 14.4999 13C14.5999 12.9 14.6999 12.9001 14.7999 12.9001C14.9999 12.9001 15.1999 12.9 15.3999 13C16.2999 13.2 16.8999 13.8 17.3999 14.6C17.8999 15.5 18.0999 16.5 18.2999 17.5C18.2999 17.6 18.2999 17.6 18.2999 17.7C18.2999 17.9 18.3999 18.2001 18.3999 18.4001C18.3999 18.8001 18.3999 19.1 18.3999 19.5C18.4999 21.3 17.4999 22.3 15.8999 22.3Z" fill="black"/>
<path d="M28 14C27.9 13.1 27.6999 12.3 27.2999 11.5C26.7999 10.6 26.0999 10.1 25.0999 9.90002C24.6999 9.80002 24.3999 9.89998 24.0999 10.1C23.8999 10.2 23.7999 10.3 23.5999 10.4C22.2999 11.2 21 11.2 19.7 10.4C19.5 10.3 19.3 10.1 19 10C18.9 9.9 18.7 9.79999 18.5 9.79999C18 9.79999 17.5 9.89998 17.1 10.1C16.7 10.3 16.4 10.5 16.2 10.9C16.2 10.9 16.1999 10.9 16.2999 10.9C16.5999 10.9 16.9999 11 17.2999 11.1C17.5999 10.8 18 10.7 18.5 10.7C18.5 10.7 18.6 10.7 18.7 10.8C19 11 19.4 11.2 19.7 11.4C21.2 12.2 22.7 12 24.2 11.1C24.4 11 24.5999 10.9 24.7999 10.7C24.9 10.7 24.9 10.6 25 10.7C25.8 10.7 26.3 11.2 26.7 11.8C27 12.4 27.1999 13.1 27.2999 13.9C27.2999 14.3 27.4 14.7 27.4 15.1C27.4 16.2 26.8 16.8 25.7 16.9C24.4 16.9 23.0999 16.9 21.7999 16.9H20.7999C20.7999 17 20.7999 17 20.7999 17.1C20.7999 17.4 20.8 17.6 20.9 17.9H25.9H26C27.3 17.7 28.2999 16.7 28.2999 15.4C28.0999 14.9 28.1 14.5 28 14Z" fill="black"/>
<path d="M21.4999 2.40002C19.3999 2.40002 17.6999 4.10001 17.7999 6.20001C17.7999 8.30001 19.4999 10 21.5999 9.90002C23.6999 9.90002 25.2999 8.19998 25.2999 6.09998C25.2999 4.09998 23.5999 2.40002 21.4999 2.40002ZM21.4999 9C19.8999 9 18.6999 7.70001 18.6999 6.20001C18.6999 4.60001 19.9999 3.40002 21.4999 3.40002C22.9999 3.40002 24.2999 4.70001 24.2999 6.20001C24.3999 7.70001 23.0999 9 21.4999 9Z" fill="black"/>
</svg>
