<svg width="27" height="23" viewBox="0 0 27 23" fill="none" xmlns="http://www.w3.org/2000/svg">
<path d="M26.1998 10.3C26.0998 10.5 26.0998 10.7 25.9998 10.9C25.6998 11.4 25.2998 11.6 24.7998 11.8C21.7998 12.5 18.7998 13.1 15.8998 13.8C15.6998 13.8 15.5998 13.9 15.5998 14.1C15.5998 14.6 15.5998 15.1 15.5998 15.6C15.5998 16.1 15.3998 16.3 14.8998 16.3C13.7998 16.3 12.6998 16.3 11.5998 16.3C11.0998 16.3 10.8998 16.1 10.8998 15.6C10.8998 15.1 10.8998 14.6 10.8998 14.1C10.8998 13.9 10.7998 13.8 10.6998 13.8C7.6998 13.1 4.6998 12.5 1.7998 11.8C0.899805 11.6 0.299805 10.9 0.299805 10C0.299805 8.8 0.299805 7.60002 0.299805 6.40002C0.299805 5.30002 0.9998 4.5 2.0998 4.5C2.1998 4.5 2.1998 4.5 2.2998 4.5C9.5998 4.5 16.9998 4.5 24.2998 4.5C24.9998 4.5 25.5998 4.70001 25.8998 5.20001C26.0998 5.40001 26.0998 5.7 26.1998 6C26.1998 7.4 26.1998 8.89999 26.1998 10.3ZM15.4998 12.6C15.5998 12.6 15.6998 12.6 15.7998 12.5C18.5998 11.9 21.4998 11.2 24.2998 10.6C24.7998 10.5 24.8998 10.3 24.8998 9.79999C24.8998 8.59999 24.8998 7.49999 24.8998 6.29999C24.8998 5.79999 24.6998 5.59998 24.1998 5.59998C16.7998 5.59998 9.3998 5.59998 1.9998 5.59998C1.4998 5.59998 1.2998 5.79999 1.2998 6.29999C1.2998 7.49999 1.2998 8.59999 1.2998 9.79999C1.2998 10.3 1.3998 10.5 1.8998 10.6C4.0998 11.1 6.3998 11.6 8.5998 12.1C9.2998 12.3 9.9998 12.4 10.6998 12.6C10.6998 12.5 10.6998 12.4 10.6998 12.2C10.6998 11.7 10.8998 11.5 11.3998 11.5C11.7998 11.5 12.2998 11.5 12.6998 11.5C13.3998 11.5 13.9998 11.5 14.6998 11.5C15.1998 11.5 15.3998 11.7 15.3998 12.2C15.4998 12.4 15.4998 12.5 15.4998 12.6ZM11.9998 15.1C12.7998 15.1 13.5998 15.1 14.2998 15.1C14.2998 14.3 14.2998 13.5 14.2998 12.8C13.4998 12.8 12.6998 12.8 11.9998 12.8C11.9998 13.6 11.9998 14.3 11.9998 15.1Z" fill="black"/>
<path d="M13.0997 22.8C9.59971 22.8 6.09971 22.8 2.59971 22.8C1.79971 22.8 1.19971 22.5 0.899712 21.8C0.799712 21.5 0.699707 21.2 0.699707 20.9C0.699707 18.4 0.699707 15.9 0.699707 13.4C0.699707 12.9 0.99971 12.6 1.49971 12.7C1.69971 12.7 1.79971 12.9 1.89971 13.1C1.89971 13.2 1.89971 13.4 1.89971 13.5C1.89971 15.9 1.89971 18.4 1.89971 20.8C1.89971 21.4 2.09971 21.6 2.69971 21.6C9.69971 21.6 16.5997 21.6 23.5997 21.6C24.1997 21.6 24.3997 21.4 24.3997 20.8C24.3997 18.4 24.3997 15.9 24.3997 13.5C24.3997 13.4 24.3997 13.3 24.3997 13.1C24.4997 12.8 24.6997 12.6 24.9997 12.6C25.2997 12.6 25.4997 12.8 25.5997 13.1C25.5997 13.2 25.5997 13.3 25.5997 13.3C25.5997 15.8 25.5997 18.2 25.5997 20.7C25.5997 21.5 25.2997 22.1 24.5997 22.4C24.2997 22.5 23.9997 22.6 23.6997 22.6C20.0997 22.8 16.5997 22.8 13.0997 22.8Z" fill="black"/>
<path d="M13.1999 0.299988C14.0999 0.299988 15.0999 0.299988 15.9999 0.299988C17.1999 0.299988 17.8999 1.00001 17.8999 2.20001C17.8999 2.40001 17.8999 2.50001 17.8999 2.70001C17.8999 3.10001 17.5999 3.29999 17.2999 3.29999C16.9999 3.29999 16.6999 3.10001 16.6999 2.70001C16.6999 2.50001 16.6999 2.3 16.6999 2C16.6999 1.7 16.4999 1.5 16.1999 1.5C16.0999 1.5 15.9999 1.5 15.8999 1.5C14.0999 1.5 12.1999 1.5 10.3999 1.5C9.79989 1.5 9.59989 1.69999 9.59989 2.29999C9.59989 2.49999 9.59989 2.59999 9.59989 2.79999C9.59989 3.09999 9.29989 3.19999 9.09989 3.29999C8.79989 3.29999 8.59989 3.20002 8.49989 2.90002C8.39989 2.30002 8.39989 1.59998 8.79989 1.09998C9.19989 0.599976 9.69989 0.400024 10.2999 0.400024C11.1999 0.300024 12.1999 0.299988 13.1999 0.299988Z" fill="black"/>
</svg>
